<?xml version="1.0" encoding="utf-8"?>
<!-- Generator: Adobe Illustrator 16.0.0, SVG Export Plug-In . SVG Version: 6.00 Build 0)  -->
<!DOCTYPE svg PUBLIC "-//W3C//DTD SVG 1.1//EN" "http://www.w3.org/Graphics/SVG/1.1/DTD/svg11.dtd">
<svg version="1.1" id="图层_1" xmlns="http://www.w3.org/2000/svg" xmlns:xlink="http://www.w3.org/1999/xlink" x="0px" y="0px"
	 width="128px" height="128px" viewBox="0 0 128 128" enable-background="new 0 0 128 128" xml:space="preserve">
<g>
	<polygon fill="#293C54" points="9.39,103.767 9.39,11.512 102.517,11.512 102.517,21.332 111.157,21.332 111.157,2 -0.122,2 
		-0.122,113.277 19.079,113.277 19.079,103.767 	"/>
	<path fill="#293C54" d="M35.017,84.129c-4.647-4.51-6.43-9.824-4.889-14.582c1.544-4.766,6.117-8.03,12.546-8.961l18.611-2.691
		l8.317-16.775c2.874-5.793,7.392-9.116,12.397-9.116c5.005,0,9.524,3.323,12.396,9.116l6.911,13.938V34.338
		c0-7.087-5.745-12.832-12.832-12.832H31.91c-7.086,0-12.832,5.745-12.832,12.832v56.62c0,7.088,5.746,12.832,12.832,12.832h15.417
		l1.14-6.613L35.017,84.129z"/>
	<path fill="#C13531" d="M84.212,115.351c-1.223-0.64-3.233-0.623-4.423,0l-17.417,9.113c-7.343,3.843-12.157,0.351-10.757-7.778
		l3.326-19.305c0.233-1.354-0.404-3.253-1.366-4.188l-14.091-13.67c-5.941-5.765-4.092-11.401,4.109-12.587l19.471-2.817
		c1.367-0.197,2.984-1.387,3.579-2.587l8.707-17.563c3.672-7.405,9.631-7.396,13.298,0l8.708,17.563
		c0.611,1.231,2.248,2.395,3.578,2.587l19.473,2.817c8.21,1.188,10.041,6.831,4.109,12.587l-14.091,13.67
		c-0.988,0.959-1.594,2.868-1.367,4.188l3.327,19.305c1.401,8.137-3.423,11.616-10.758,7.778L84.212,115.351z"/>
</g>
</svg>
