<?xml version="1.0" encoding="utf-8"?>
<!-- Generator: Adobe Illustrator 16.0.0, SVG Export Plug-In . SVG Version: 6.00 Build 0)  -->
<!DOCTYPE svg PUBLIC "-//W3C//DTD SVG 1.1//EN" "http://www.w3.org/Graphics/SVG/1.1/DTD/svg11.dtd">
<svg version="1.1" id="图层_1" xmlns="http://www.w3.org/2000/svg" xmlns:xlink="http://www.w3.org/1999/xlink" x="0px" y="0px"
	 width="600px" height="600px" viewBox="0 0 600 600" enable-background="new 0 0 600 600" xml:space="preserve">
<g>
	<circle fill="#293C54" cx="105.646" cy="55.076" r="36.182"/>
	<path fill="#293C54" d="M51.482,189.017c0-29.614,24.092-53.708,53.707-53.708c29.613,0,53.707,24.094,53.707,53.708
		c0,9.734-2.617,18.861-7.162,26.743c15.632,1.897,25.862,8.456,32.168,14.542l-0.282-91.11c0,0,2.037-40.407-40.604-40.407H69.081
		c-41.122,0-40.82,37.314-40.849,40.407l0.013,90.163c8.019-7.276,18.356-11.886,30.458-13.492
		C54.119,207.96,51.482,198.794,51.482,189.017z"/>
	<circle fill="#293C54" cx="299.049" cy="55.076" r="36.182"/>
	<path fill="#293C54" d="M244.885,189.017c0-29.614,24.093-53.708,53.706-53.708c29.614,0,53.708,24.094,53.708,53.708
		c0,9.734-2.614,18.861-7.162,26.743c15.633,1.897,25.86,8.456,32.168,14.542l-0.283-91.11c0,0,2.041-40.407-40.604-40.407h-73.934
		c-41.122,0-40.821,37.314-40.848,40.407l0.01,90.163c8.021-7.276,18.357-11.886,30.458-13.492
		C247.521,207.96,244.885,198.794,244.885,189.017z"/>
	<circle fill="#293C54" cx="492.452" cy="55.076" r="36.182"/>
	<path fill="#293C54" d="M438.286,189.017c0-29.614,24.094-53.708,53.706-53.708c29.617,0,53.709,24.094,53.709,53.708
		c0,9.734-2.615,18.861-7.161,26.743c15.631,1.897,25.861,8.456,32.168,14.542l-0.286-91.11c0,0,2.04-40.407-40.601-40.407h-73.935
		c-41.12,0-40.821,37.314-40.849,40.407l0.012,90.163c8.019-7.276,18.356-11.886,30.458-13.492
		C440.925,207.96,438.286,198.794,438.286,189.017z"/>
</g>
<g>
	<g>
		<path fill="#C13531" d="M69.009,186.737c0,19.984,16.197,36.182,36.181,36.182c19.98,0,36.181-16.198,36.181-36.182
			c0-19.984-16.2-36.182-36.181-36.182C85.206,150.555,69.009,166.753,69.009,186.737L69.009,186.737z"/>
		<path fill="#C13531" d="M183.161,270.854c0,0,2.039-40.408-40.601-40.408H68.623c-41.121,0-40.819,37.314-40.848,40.408
			l0.016,114.676c0.667,6.185,6.771,13.231,14.353,13.231c7.542,0,13.084-6.828,13.768-13.027l12.837,182.616
			c0.944,9.291,7.51,12.755,15.586,12.755c8.061,0,14.614-3.464,15.558-12.755h11.399c0.984,9.291,7.527,12.755,15.559,12.755
			c8.091,0,14.643-3.464,15.615-12.755l13.219-182.74c0,6.198,6.009,13.179,13.575,13.179c7.554,0,13.587-7.074,14.258-13.259
			L183.161,270.854z"/>
	</g>
	<g>
		<path fill="#C13531" d="M262.41,186.737c0,19.984,16.2,36.182,36.181,36.182c19.983,0,36.181-16.198,36.181-36.182
			c0-19.984-16.197-36.182-36.181-36.182C278.61,150.555,262.41,166.753,262.41,186.737L262.41,186.737z"/>
		<path fill="#C13531" d="M376.565,270.854c0,0,2.04-40.408-40.604-40.408h-73.937c-41.122,0-40.82,37.314-40.849,40.408
			l0.017,114.676c0.669,6.185,6.772,13.231,14.354,13.231c7.54,0,13.082-6.828,13.768-13.027l12.836,182.616
			c0.942,9.291,7.512,12.755,15.587,12.755c8.06,0,14.613-3.464,15.557-12.755h11.398c0.987,9.291,7.528,12.755,15.558,12.755
			c8.092,0,14.646-3.464,15.616-12.755l13.22-182.74c0,6.198,6.009,13.179,13.574,13.179c7.555,0,13.589-7.074,14.261-13.259
			L376.565,270.854z"/>
	</g>
	<g>
		<path fill="#C13531" d="M455.812,186.737c0,19.984,16.199,36.182,36.18,36.182c19.985,0,36.183-16.198,36.183-36.182
			c0-19.984-16.197-36.182-36.183-36.182C472.012,150.555,455.812,166.753,455.812,186.737L455.812,186.737z"/>
		<path fill="#C13531" d="M569.966,270.854c0,0,2.039-40.408-40.604-40.408h-73.935c-41.12,0-40.82,37.314-40.847,40.408
			l0.013,114.676c0.672,6.185,6.776,13.231,14.356,13.231c7.539,0,13.079-6.828,13.766-13.027l12.837,182.616
			c0.942,9.291,7.512,12.755,15.586,12.755c8.06,0,14.613-3.464,15.561-12.755h11.397c0.985,9.291,7.526,12.755,15.558,12.755
			c8.089,0,14.645-3.464,15.616-12.755l13.217-182.74c0,6.198,6.01,13.179,13.575,13.179c7.555,0,13.591-7.074,14.261-13.259
			L569.966,270.854z"/>
	</g>
</g>
</svg>
