<?xml version="1.0" encoding="utf-8"?>
<!-- Generator: Adobe Illustrator 16.0.0, SVG Export Plug-In . SVG Version: 6.00 Build 0)  -->
<!DOCTYPE svg PUBLIC "-//W3C//DTD SVG 1.1//EN" "http://www.w3.org/Graphics/SVG/1.1/DTD/svg11.dtd">
<svg version="1.1" id="图层_1" xmlns="http://www.w3.org/2000/svg" xmlns:xlink="http://www.w3.org/1999/xlink" x="0px" y="0px"
	 width="600px" height="600px" viewBox="0 0 600 600" enable-background="new 0 0 600 600" xml:space="preserve">
<g>
	<path fill="#273B52" d="M21.936,224.323c50.79-12.003,67.932-63.524,103.981-66.726c46.898-4.165,74.783,34.234,105.97,27.499
		c33.345-7.2,51.852-77.22,99.618-77.22c36.049,0,67.468,90.045,99.914,90.045c32.443,0,60.837-69.591,91.48-70.788
		c27.389-1.075,39.668,12.452,55.164,37.054v112.935H21.936V224.323z"/>
	<path fill="#CCCDCC" d="M578.063,373.586c-25.727,31.613-56.43,68.138-92.48,71.337c-46.898,4.16-91.396-63.338-132.254-64.937
		c-31.582-1.236-64.463,45.207-112.953,39.197c-77.508-9.596-67.896-75.598-136.09-84.799c-38.024-5.13-53.77-7.199-82.35-6.401
		v-48.462h556.127V373.586z"/>
	<path fill="#B73630" d="M134.327,217.582c46.9-4.156,74.789,52.004,106.334,54.406c31.543,2.397,74.549-51.855,111.75-53.201
		c23.426-0.85,49.206,31.904,81.652,31.904c32.444,0,37.859-40.389,76.082-40.419c29.891-0.017,55.274,30.516,67.918,57.712v9.138
		v11.061v43.003c-21.654-15.199-47.49-27.602-67.319-18.801c-25.161,11.172-38.45,47.602-70.895,47.602
		s-62.72-52.287-110.554-55.198c-35.117-2.144-56.592,27.679-87.436,36.798c-40.568,11.996-56.729-51.838-103.627-55.999
		c-36.05-3.199-67.734,13.615-116.297,13.132v-10.536v-11.061v-21.137C76.35,256.288,98.279,220.789,134.327,217.582z"/>
</g>
</svg>
